<?xml version="1.0" encoding="UTF-8"?>
<svg width="153px" height="153px" viewBox="0 0 153 153" version="1.1" xmlns="http://www.w3.org/2000/svg" xmlns:xlink="http://www.w3.org/1999/xlink">
  <g id="Page-1" stroke="none" stroke-width="1" fill="none" fill-rule="evenodd">
    <g id="Group-13" fill="#778EB1">
      <path d="M8.04,0.3602 C3.48,0.3602 0,3.8402 0,8.7602 L0.24,66.3602 C0.24,70.9202 3.84,74.5202 8.4,74.5202 L37.44,74.5202 C50.76,74.5202 68.76,71.6402 73.8,48.0002 C73.8,48.0002 78.72,24.3602 81.48,10.2002 C82.56,4.9202 78.72,0.0002 73.44,0.0002 L8.04,0.3602" id="Fill-7"></path>
      <path d="M119.2803,27.1204 C99.8403,27.1204 88.2003,35.6404 82.9203,53.2804 L69.4803,95.7604 C64.5603,109.4404 56.4003,115.4404 42.0003,115.4404 L8.0403,115.4404 C3.8403,115.4404 0.2403,119.0404 0.2403,123.2404 L0.2403,144.8404 C0.2403,149.0404 3.8403,152.1604 7.6803,152.1604 L144.7203,151.5604 C149.0403,151.5604 152.5203,147.9604 152.5203,143.7604 L152.1603,34.5604 C152.1603,30.3604 148.6803,27.1204 144.7203,27.1204 L119.2803,27.1204" id="Fill-9"></path>
    </g>
  </g>
</svg>
